<?xml version="1.0" standalone="no"?>
<!DOCTYPE svg PUBLIC "-//W3C//DTD SVG 20010904//EN"
 "http://www.w3.org/TR/2001/REC-SVG-20010904/DTD/svg10.dtd">
<svg version="1.0" xmlns="http://www.w3.org/2000/svg"
 width="200.000000pt" height="347.000000pt" viewBox="0 0 200.000000 347.000000"
 preserveAspectRatio="xMidYMid meet">
<metadata>
Created by potrace 1.16, written by Peter Selinger 2001-2019
</metadata>
<g transform="translate(0.000000,347.000000) scale(0.100000,-0.100000)"
fill="#000000" stroke="none">
<path d="M395 3406 c-17 -7 -45 -36 -64 -65 -18 -29 -35 -50 -38 -48 -2 3 8
22 22 42 14 21 23 40 21 43 -10 9 -115 -48 -131 -72 -10 -15 -16 -42 -14 -68
1 -24 -2 -51 -6 -61 -4 -11 1 -41 13 -75 14 -36 18 -60 12 -66 -16 -16 -12
-43 15 -96 27 -54 32 -90 12 -90 -22 0 -151 -66 -186 -96 l-34 -28 6 -196 c9
-310 39 -740 53 -754 7 -8 16 -79 23 -192 6 -98 14 -213 16 -254 3 -41 14
-223 25 -405 22 -350 37 -556 45 -592 3 -13 13 -23 23 -23 14 0 17 8 14 47 -1
27 -16 280 -32 563 -16 283 -32 574 -35 645 -3 72 -8 149 -11 173 -3 26 -1 42
5 42 7 0 11 -40 11 -112 1 -131 7 -130 60 1 44 108 52 123 45 86 -4 -16 -27
-76 -51 -132 l-46 -102 17 -288 c23 -406 54 -918 54 -920 1 -2 23 -3 50 -3 46
0 50 -2 54 -27 4 -26 4 -26 6 5 0 20 6 32 15 32 21 0 23 30 41 470 12 305 21
421 42 558 14 94 27 172 29 172 2 0 3 -28 2 -62 -1 -35 4 -106 12 -158 10 -70
14 -209 14 -533 l1 -438 70 3 70 3 45 567 c25 312 48 569 51 572 3 3 21 -13
40 -37 63 -79 212 -227 283 -281 78 -59 317 -193 409 -229 64 -25 68 -34 42
-107 -20 -56 -69 -138 -176 -290 -116 -166 -149 -236 -149 -317 0 -73 -13 -81
-54 -33 -59 71 -41 219 40 325 30 40 27 50 -10 41 -39 -10 -89 -58 -121 -118
-24 -44 -30 -68 -33 -139 -5 -95 10 -139 65 -191 63 -60 74 -62 462 -60 245 1
358 5 367 13 22 19 16 61 -13 91 l-28 29 0 167 c0 92 2 277 4 412 l5 245 43
41 c35 33 43 47 43 76 0 37 -14 55 -67 82 -28 14 -32 21 -38 73 -8 69 -23 120
-37 129 -15 9 -41 -28 -62 -87 -17 -47 -20 -49 -55 -49 l-37 0 -18 70 c-10 39
-22 73 -26 75 -15 9 -59 -55 -75 -107 -10 -33 -15 -93 -15 -168 0 -65 -3 -138
-6 -163 l-6 -45 -37 15 c-74 31 -110 49 -250 127 -125 70 -159 95 -254 186
-61 58 -139 139 -175 180 l-64 75 6 90 c11 161 17 195 33 195 12 0 14 43 11
295 -2 243 -1 294 10 290 43 -16 119 -15 151 2 62 33 76 63 75 161 -2 92 -27
329 -45 424 -8 38 -17 59 -28 63 -10 3 -18 18 -19 37 -7 94 -46 175 -102 212
-36 23 -40 31 -38 61 1 19 -1 37 -4 41 -12 11 -28 -7 -28 -30 0 -35 -23 -72
-42 -68 -26 5 -29 -12 -12 -59 9 -24 17 -77 19 -117 1 -40 6 -76 9 -79 13 -13
34 32 29 61 -5 22 -3 27 7 21 8 -5 10 -20 7 -40 -3 -18 0 -38 6 -44 8 -8 5
-16 -8 -31 -16 -18 -17 -32 -12 -129 l6 -110 -63 29 c-35 15 -103 40 -152 56
-49 16 -89 28 -90 29 -1 0 -4 14 -7 32 -6 30 -4 33 30 42 52 15 73 38 73 82 0
63 -20 141 -50 195 -29 51 -29 52 -9 69 24 23 25 76 2 104 -23 27 -70 35 -108
17z m405 -127 c19 -12 45 -30 58 -42 24 -22 62 -131 62 -177 0 -25 -5 -28 -59
-42 l-59 -14 -7 45 c-3 25 -13 68 -22 94 -8 27 -13 50 -10 53 2 3 19 -7 36
-21 50 -43 36 -15 -16 31 -56 49 -50 69 10 35 31 -18 38 -20 28 -7 -8 10 -27
24 -43 32 -15 8 -28 19 -28 24 0 15 11 12 50 -11z m-312 -46 c27 -38 51 -114
58 -182 7 -67 -4 -84 -67 -101 l-41 -11 7 -41 c6 -35 5 -39 -11 -36 -27 5 -29
48 -4 103 13 28 18 54 14 63 -4 10 -6 21 -5 26 4 20 -31 76 -48 76 -20 0 -48
68 -38 93 5 14 60 34 99 36 9 1 25 -11 36 -26z m-141 -59 l20 -45 -59 -56
c-32 -31 -61 -54 -64 -50 -13 13 -54 139 -48 149 9 14 85 48 110 48 16 0 27
-12 41 -46z m63 -68 c0 -7 -9 -25 -20 -39 -28 -36 -24 -48 4 -13 30 37 41 20
17 -28 -20 -38 -17 -48 5 -19 23 32 26 6 4 -38 -16 -31 -21 -54 -17 -86 5 -49
6 -48 -90 -37 -49 6 -53 9 -53 33 0 14 -11 44 -25 66 -34 55 -32 98 3 63 9 -9
27 3 76 50 62 60 96 77 96 48z m557 -151 c17 -87 44 -333 46 -419 1 -79 -12
-112 -58 -142 -27 -18 -106 -21 -146 -5 -24 9 -27 16 -33 83 -9 96 -34 203
-57 252 -11 22 -19 41 -19 43 0 1 16 -5 35 -14 31 -15 34 -20 38 -67 2 -28 4
26 5 121 1 122 6 174 14 179 20 13 111 33 138 31 22 -2 26 -9 37 -62z m-411
-129 c112 -38 122 -45 149 -101 50 -102 71 -293 74 -677 2 -222 0 -238 -16
-238 -10 0 -58 -3 -108 -6 l-90 -5 -37 65 c-21 35 -38 71 -38 80 0 8 12 57 26
108 20 73 27 123 30 233 5 130 2 153 -30 315 -39 197 -49 230 -70 230 -8 0
-18 5 -21 10 -11 18 60 11 131 -14z m-309 -77 c8 -46 16 -156 18 -244 2 -129
7 -172 23 -220 11 -33 19 -61 17 -63 -2 -3 -17 5 -34 17 -43 31 -96 108 -140
203 -21 46 -43 94 -50 108 -11 25 -11 25 -6 -5 3 -16 26 -71 50 -122 45 -92
136 -206 175 -218 10 -3 38 -40 61 -82 23 -43 75 -131 116 -197 l73 -121 -87
-8 c-49 -4 -155 -6 -237 -5 l-150 3 -3 30 c-9 96 -34 548 -40 707 l-6 186 29
27 c27 25 165 98 172 91 2 -2 10 -42 19 -87z m189 71 c18 -7 26 -26 43 -97 28
-122 61 -310 61 -350 0 -103 -93 -194 -181 -176 -24 4 -32 15 -50 62 -30 81
-43 159 -29 176 16 19 -11 301 -37 389 -5 18 0 18 83 11 49 -4 98 -11 110 -15z
m101 -599 c-4 -33 -19 -108 -33 -166 l-27 -106 -49 82 c-27 46 -58 99 -69 120
l-19 38 33 -6 c45 -7 99 17 133 61 16 20 31 36 33 36 2 0 1 -27 -2 -59z"/>
<path d="M451 1319 c-14 -87 -15 -207 -5 -666 7 -311 8 -323 27 -323 19 0 19
9 14 498 -3 273 -9 513 -14 532 -9 34 -10 32 -22 -41z"/>
<path d="M492 293 c-2 -24 -7 -33 -20 -33 -14 0 -17 -7 -13 -47 2 -27 7 -53
13 -60 5 -6 46 -26 91 -44 45 -18 92 -44 103 -56 22 -23 23 -24 158 -15 75 4
139 12 143 16 14 14 -46 56 -81 56 -50 0 -132 28 -166 57 -17 14 -40 43 -51
64 -11 22 -26 39 -34 39 -12 0 -14 7 -9 26 5 19 4 25 -5 20 -6 -4 -11 -15 -11
-25 0 -20 -26 -31 -77 -31 -28 0 -32 3 -36 33 l-4 32 -1 -32z"/>
<path d="M288 243 l-88 -4 0 -38 c0 -21 -3 -66 -6 -100 l-7 -61 33 0 c19 0 41
7 51 16 17 15 20 15 45 -5 25 -19 39 -21 186 -21 188 0 195 6 63 63 -113 49
-137 66 -160 116 -10 23 -21 40 -24 39 -3 -1 -45 -4 -93 -5z"/>
</g>
</svg>
