<?xml version="1.0" standalone="no"?>
<!DOCTYPE svg PUBLIC "-//W3C//DTD SVG 20010904//EN"
 "http://www.w3.org/TR/2001/REC-SVG-20010904/DTD/svg10.dtd">
<svg version="1.0" xmlns="http://www.w3.org/2000/svg"
 width="160.000000pt" height="155.000000pt" viewBox="0 0 160.000000 155.000000"
 preserveAspectRatio="xMidYMid meet">

<g transform="translate(0.000000,155.000000) scale(0.100000,-0.100000)"
fill="#000000" stroke="none">
<path d="M737 1476 c-95 -71 -288 -250 -362 -335 -38 -45 -90 -95 -115 -113
-25 -17 -56 -45 -70 -62 -14 -17 -53 -64 -88 -104 l-63 -72 68 -83 c37 -45
139 -152 228 -237 88 -85 226 -221 306 -303 l145 -148 113 107 c62 59 155 157
207 217 63 73 137 144 222 212 70 56 152 132 183 167 l55 65 -155 161 c-86 88
-203 202 -261 253 -57 52 -152 139 -210 195 -58 56 -114 106 -126 112 -17 9
-29 4 -77 -32z m103 -176 c39 -61 121 -133 180 -158 l43 -18 -58 -33 c-66 -37
-146 -109 -176 -157 -11 -19 -24 -34 -28 -34 -4 0 -15 13 -24 29 -28 47 -103
117 -168 158 l-61 37 44 22 c60 30 143 107 174 160 14 24 30 44 34 44 4 0 22
-23 40 -50z m-279 -414 c29 -26 71 -57 92 -68 21 -10 36 -22 33 -26 -4 -3 -34
-24 -68 -46 -34 -23 -77 -61 -95 -86 -19 -25 -44 -58 -57 -75 l-23 -30 -18 35
c-25 50 -101 126 -168 166 -31 20 -57 37 -57 40 0 2 23 15 50 29 67 34 125 88
168 154 l34 53 28 -49 c16 -28 52 -71 81 -97z m631 111 c27 -56 115 -144 174
-173 30 -14 54 -28 54 -29 0 -2 -24 -17 -54 -34 -65 -36 -128 -98 -166 -164
l-27 -48 -32 49 c-40 63 -125 143 -181 172 l-43 22 54 29 c67 37 126 94 165
159 16 27 32 50 35 50 3 0 12 -15 21 -33z m-357 -358 c24 -52 110 -131 175
-161 51 -24 63 -38 32 -38 -46 0 -179 -116 -216 -188 -9 -18 -18 -32 -21 -32
-2 0 -22 26 -44 59 -44 64 -124 134 -177 153 -19 6 -34 15 -34 18 0 3 21 16
46 28 57 28 150 115 175 164 11 21 25 38 32 38 6 0 21 -19 32 -41z"/>
</g>
</svg>
