<?xml version="1.0" standalone="no"?>
<!DOCTYPE svg PUBLIC "-//W3C//DTD SVG 20010904//EN"
 "http://www.w3.org/TR/2001/REC-SVG-20010904/DTD/svg10.dtd">
<svg version="1.0" xmlns="http://www.w3.org/2000/svg"
 width="266.000000pt" height="84.000000pt" viewBox="0 0 266.000000 84.000000"
 preserveAspectRatio="xMidYMid meet">
<metadata>
Created by potrace 1.16, written by Peter Selinger 2001-2019
</metadata>
<g transform="translate(0.000000,84.000000) scale(0.100000,-0.100000)"
fill="#000000" stroke="none">
<path d="M30 430 l0 -400 1300 0 1300 0 0 400 0 400 -1300 0 -1300 0 0 -400z
m494 234 c68 -34 91 -57 121 -120 29 -62 33 -137 10 -205 -60 -174 -284 -228
-413 -100 -48 49 -65 88 -70 168 -6 87 12 140 66 197 81 85 191 108 286 60z
m881 16 c7 0 17 -12 23 -27 138 -372 170 -463 163 -467 -3 -2 -22 -7 -42 -11
-32 -6 -39 -4 -55 20 -34 48 -54 65 -76 65 -23 0 -110 -40 -160 -73 -18 -13
-41 -17 -75 -15 -44 3 -48 5 -45 27 1 14 23 67 47 118 25 51 45 95 45 98 0 5
44 104 71 160 10 22 19 44 19 48 0 21 43 68 57 63 8 -3 20 -6 28 -6z m890 0
c7 0 17 -12 23 -27 138 -372 170 -463 163 -467 -3 -2 -22 -7 -42 -11 -32 -6
-39 -4 -55 20 -34 48 -54 65 -76 65 -23 0 -110 -40 -160 -73 -18 -13 -41 -17
-75 -15 -44 3 -48 5 -45 27 1 14 23 67 47 118 25 51 45 95 45 98 0 5 44 104
71 160 10 22 19 44 19 48 0 21 43 68 57 63 8 -3 20 -6 28 -6z m-1499 -139 c1
-118 4 -136 20 -148 23 -17 150 -18 161 0 4 6 10 73 13 147 l5 135 40 0 40 0
3 -247 2 -248 -22 0 c-13 0 -32 -3 -44 -6 -19 -5 -22 0 -27 37 -7 56 -27 69
-103 69 -73 0 -94 -15 -94 -66 0 -35 0 -35 -42 -32 l-43 3 -3 235 c-1 129 0
241 3 248 3 9 19 12 47 10 l43 -3 1 -134z m914 100 c0 -67 18 -99 93 -161 104
-88 106 -87 109 68 l3 127 43 3 42 3 -2 -253 -3 -253 -40 0 c-35 0 -40 3 -43
25 -6 52 -26 81 -91 133 -84 69 -89 71 -106 57 -11 -10 -15 -38 -15 -116 l0
-104 -45 0 -45 0 0 248 c0 137 3 252 7 255 3 4 26 7 50 7 l43 0 0 -39z"/>
<path d="M401 599 c-119 -25 -165 -178 -82 -272 21 -24 76 -47 113 -47 77 0
148 80 148 166 0 91 -94 171 -179 153z"/>
</g>
</svg>
